#N canvas 89 69 857 717 10;
#X obj 15 340 cnv 15 160 100 empty empty empty 20 12 0 14 -24198 -66577
0;
#X obj 71 614 pix_texture;
#X obj -128 627 pix_write;
#X obj 70 636 square 4;
#X msg -137 594 bang;
#X msg -130 568 auto 0 \, file testimg;
#X obj 524 310 l;
#X obj 538 235 list prepend;
#X obj 76 53 gemhead;
#X obj 75 29 tgl 15 0 empty empty empty 17 7 0 10 -262144 -1 -1 0 1
;
#X msg 104 190 set \$1 \$2;
#X obj 107 164 pack f f;
#X obj 133 135 t b f;
#X msg 86 592 quality \$1;
#X obj 88 571 tgl 15 0 empty empty empty 17 7 0 10 -262144 -1 -1 0
1;
#X obj 197 324 l;
#X obj 218 256 bng 50 250 50 0 empty empty show_img 17 7 0 10 -257985
-1 -1;
#X obj -133 54 gemwin;
#X msg -164 12 create \, 1;
#X msg -118 34 0 \, destroy;
#X obj -147 246 nbx 5 14 -1e+37 1e+37 0 0 empty empty empty 0 -8 0
10 -262144 -1 -1 45 256;
#X obj -80 246 nbx 5 14 -1e+37 1e+37 0 0 empty empty empty 0 -8 0 10
-262144 -1 -1 60 256;
#X obj -150 285 s sizeX;
#X obj -84 285 s sizeY;
#X obj 93 98 r sizeX;
#X obj 149 99 r sizeY;
#N canvas 84 154 593 531 soundIn 0;
#X obj 109 17 adc~;
#X obj 241 186 unpack;
#X floatatom 241 236 0 0 0 0 - - -;
#X floatatom 255 213 0 0 0 0 - - -;
#X obj 241 146 route 1 2 3 4;
#X obj 324 186 unpack;
#X floatatom 324 236 0 0 0 0 - - -;
#X floatatom 338 213 0 0 0 0 - - -;
#X obj 408 186 unpack;
#X floatatom 408 236 0 0 0 0 - - -;
#X floatatom 422 213 0 0 0 0 - - -;
#X floatatom 79 215 0 0 0 0 - - -;
#X text 237 257 individual sinusoidal components;
#X text 79 237 amplitude;
#X text 89 252 (dB);
#X obj 135 70 spigot~;
#X obj 246 -20 metro 500;
#X obj 198 76 tgl 15 0 empty empty empty 17 7 0 10 -262144 -1 -1 0
1;
#X obj 253 4 t b b;
#X obj -40 225 outlet attack;
#X obj 222 -20 tgl 15 0 empty empty empty 17 7 0 10 -262144 -1 -1 0
1;
#X msg 204 39 1;
#X msg 300 35 0;
#X obj 234 23 delay 10;
#X obj 32 272 outlet alpha;
#X obj 51 412 outlet H;
#X obj 278 305 -;
#X obj 357 315 -;
#X obj 276 338 abs;
#X obj 355 343 abs;
#X obj 318 368 +;
#X floatatom 336 401 5 0 0 0 - - -;
#X obj 53 330 print H;
#X obj 394 388 print S;
#X obj 53 373 expr ($f1-60)/2000;
#X obj 293 428 outlet S;
#X obj 148 274 unpack;
#X obj 178 413 outlet V;
#X msg 222 325;
#X floatatom 200 349 0 0 0 0 - - -;
#X obj -29 59 rfft~;
#X obj 216 294 print;
#X obj 192 383 expr $f1/60;
#N canvas 827 238 450 300 fourier 0;
#X floatatom 48 274 7 0 0 0 - - -;
#N canvas 0 0 450 300 (subpatch) 0;
#X array \$0-real 64 float 2;
#X coords 0 64 64 -64 256 200 1;
#X restore 433 194 graph;
#X floatatom 48 178 5 0 32 0 - - -;
#X obj 88 250 samplerate~;
#X obj 48 225 t f b;
#X obj 48 250 *;
#X obj 90 578 metro 250;
#X obj 48 647 tabwrite~ \$0-real;
#X obj 77 624 tabwrite~ \$0-imaginary;
#X obj 48 394 osc~;
#N canvas 0 0 450 300 (subpatch) 0;
#X array \$0-imaginary 64 float 2;
#X coords 0 64 64 -64 256 200 1;
#X restore 433 427 graph;
#X obj 79 370 f;
#X floatatom 101 326 3 0 100 0 - - -;
#X obj 101 347 / 100;
#X obj 48 201 / 64;
#X text 605 175 real part;
#X text 560 408 imaginary part;
#X obj 90 555 loadbang;
#X text 104 176 <- frequency;
#X text 143 192 (as multiple;
#X text 145 208 of SR/64 \, the;
#X text 143 225 fundamental);
#X text 180 355 of a cycle;
#X text 441 648 updated for PD version 0.39;
#X obj 99 600 s \$0-snap;
#X obj 79 296 r \$0-snap;
#X text 137 325 <- phase in;
#X text 171 341 hundredths;
#X text 123 274 <- frequency \, Hz.;
#X text 97 425 given the real and imaginary part;
#X text 98 441 of a complex-valued signal. Here;
#X text 97 457 the imaginary part is zero (the;
#X text 96 410 fft~ computes the Fourier transform \,;
#X text 196 551 real and imaginary;
#X text 196 567 outputs are graphed;
#X text 195 584 separately.;
#X text 96 474 input is real-valued). The output;
#X text 95 492 is a (real \, imaginary) pair for each;
#X text 96 510 frequency from 0 to 63 (in units of;
#X text 97 530 SR/64).;
#X text 155 -26 The "fft~" object has separate inlets for the real
and imaginary parts of a complex-valued signal and outputs its Fourier
transform \, again using separate outlets for the real and imaginary
part. The transform is done on one block of samples (here the block
size is 64 \, Pd's default.) The outputs give the complex amplitudes
of the harmonics of the input signal \, from DC up. The harmonics are
tuned to the fundamental frequency of the analysis \, 1/64th of the
sample rate. If the frequency (in harmonics) is an integer \, the result
is two harmonics symmetric about the Nyquist frequency. Fractional
frequencies spill across harmonics. Changing the initial phase rotates
energy from real to imaginary and back.;
#X text 36 -14 ANALYSIS;
#X text 37 -32 FOURIER;
#X msg 48 89 0;
#X msg 48 110 10;
#X msg 48 131 10.5;
#X text 169 293 bang-on-snapshot;
#X text 167 307 from below;
#X text 110 373 sync phase with snapshots;
#X obj 47 433 fft~;
#X msg 284 624 \; pd dsp 1;
#X obj 346 264 adc~;
#X obj 320 299 spigot~;
#X obj 387 320 tgl 15 0 empty empty empty 17 7 0 10 -262144 -1 -1 0
1;
#X obj 362 384 snapshot~;
#X obj 359 411 print real;
#X obj 360 441 snapshot~;
#X obj 357 468 print real;
#X connect 0 0 9 0;
#X connect 2 0 14 0;
#X connect 3 0 5 1;
#X connect 4 0 5 0;
#X connect 4 1 3 0;
#X connect 5 0 0 0;
#X connect 6 0 7 0;
#X connect 6 0 8 0;
#X connect 6 0 24 0;
#X connect 9 0 49 0;
#X connect 11 0 9 1;
#X connect 12 0 13 0;
#X connect 13 0 11 1;
#X connect 14 0 4 0;
#X connect 17 0 6 0;
#X connect 17 0 50 0;
#X connect 25 0 11 0;
#X connect 43 0 2 0;
#X connect 44 0 2 0;
#X connect 45 0 2 0;
#X connect 49 0 7 0;
#X connect 49 0 54 0;
#X connect 49 1 8 0;
#X connect 49 1 56 0;
#X connect 51 0 52 0;
#X connect 51 1 52 0;
#X connect 52 1 49 0;
#X connect 53 0 52 1;
#X connect 54 0 55 0;
#X connect 56 0 57 0;
#X restore 377 51 pd fourier;
#X floatatom -4 158 5 0 0 0 - - -;
#X obj 74 179 bng 15 250 50 0 empty empty empty 17 7 0 10 -262144 -1
-1;
#X obj 130 115 fiddle~ 2048 1 20 3;
#X connect 0 0 15 0;
#X connect 0 1 15 0;
#X connect 1 0 2 0;
#X connect 1 1 3 0;
#X connect 3 0 26 0;
#X connect 3 0 27 0;
#X connect 4 0 1 0;
#X connect 4 1 5 0;
#X connect 4 2 8 0;
#X connect 5 0 6 0;
#X connect 5 1 7 0;
#X connect 7 0 26 1;
#X connect 8 0 9 0;
#X connect 8 1 10 0;
#X connect 10 0 27 1;
#X connect 15 0 46 0;
#X connect 16 0 18 0;
#X connect 17 0 15 1;
#X connect 18 0 23 0;
#X connect 18 1 22 0;
#X connect 20 0 16 0;
#X connect 21 0 17 0;
#X connect 22 0 17 0;
#X connect 23 0 21 0;
#X connect 26 0 28 0;
#X connect 27 0 29 0;
#X connect 28 0 30 0;
#X connect 29 0 30 1;
#X connect 30 0 31 0;
#X connect 30 0 35 0;
#X connect 34 0 25 0;
#X connect 36 0 34 0;
#X connect 36 1 39 0;
#X connect 36 1 42 0;
#X connect 42 0 37 0;
#X connect 46 0 44 0;
#X connect 46 1 45 0;
#X connect 46 2 36 0;
#X connect 46 3 11 0;
#X connect 46 4 4 0;
#X restore 569 35 pd soundIn;
#X obj -150 106 tgl 15 0 empty empty empty 17 7 0 10 -262144 -1 -1
1 1;
#X msg -153 126 \; pd dsp \$1;
#X obj 575 89 pack f f f;
#X obj 578 120 hsv2rgb;
#X msg 49 350 RGB;
#X obj -21 152 loadbang;
#X obj 497 50 t b b;
#X obj 500 24 spigot;
#X obj 548 26 tgl 15 0 empty empty empty 17 7 0 10 -262144 -1 -1 1
1;
#X obj 95 409 pix_flip;
#X msg 31 392 vertical;
#X obj 86 366 pix_set 45 60;
#X obj 475 52 bng 15 250 50 0 empty empty empty 17 7 0 10 -262144 -1
-1;
#X obj -152 83 loadbang;
#X msg -123 104 0;
#X obj 275 98 bng 50 250 50 0 empty empty reset 17 7 0 10 -86277 -1
-262144;
#X msg -156 189 45;
#X msg -88 193 60;
#X msg -128 220 5;
#X msg -52 220 12;
#X obj 277 171 t b b b;
#X obj 311 198 s reset;
#X obj 264 322 r reset;
#X msg 226 323 0;
#X obj 308 660 list prepend;
#X obj 425 627 list split;
#X obj 448 569 list;
#X obj 458 454 list length;
#X obj 455 423 t l l l;
#X obj 311 623 list;
#X obj 302 507 list length;
#X obj 312 464 t l l;
#X obj 537 392 r sizeX;
#X obj 594 395 r sizeY;
#X obj 567 417 *;
#X obj 567 437 * 3;
#X obj 408 395 demux;
#X obj 407 316 tgl 15 0 empty empty empty 17 7 0 10 -262144 -1 -1 1
1;
#X obj 298 541 sel;
#X obj 394 521 r sizeX;
#X obj 394 543 * 3;
#X obj 407 261 r reset;
#X msg 539 546 1;
#X msg 408 285 0;
#X obj 455 516 t b b b;
#X obj 454 488 sel 181;
#X obj 300 571 t b b;
#X obj 471 254 t b b;
#X obj 544 465 + 0;
#X obj 368 577 + 0;
#X text -130 685 prx: fazer os attaks constantes com um metro;
#X connect 1 0 3 0;
#X connect 4 0 2 0;
#X connect 5 0 2 0;
#X connect 6 0 7 1;
#X connect 6 0 63 0;
#X connect 7 0 6 0;
#X connect 8 0 38 0;
#X connect 9 0 8 0;
#X connect 10 0 38 0;
#X connect 11 0 10 0;
#X connect 12 0 11 0;
#X connect 12 1 11 1;
#X connect 13 0 1 0;
#X connect 14 0 13 0;
#X connect 15 0 38 1;
#X connect 16 0 15 0;
#X connect 18 0 17 0;
#X connect 19 0 17 0;
#X connect 20 0 22 0;
#X connect 21 0 23 0;
#X connect 24 0 11 0;
#X connect 25 0 12 0;
#X connect 26 0 29 0;
#X connect 26 0 34 0;
#X connect 26 1 29 2;
#X connect 26 2 29 0;
#X connect 26 4 29 1;
#X connect 27 0 28 0;
#X connect 29 0 30 0;
#X connect 30 0 7 0;
#X connect 31 0 38 0;
#X connect 32 0 31 0;
#X connect 32 0 37 0;
#X connect 32 0 44 0;
#X connect 32 0 43 0;
#X connect 33 0 39 0;
#X connect 34 0 33 0;
#X connect 35 0 34 1;
#X connect 36 0 1 0;
#X connect 37 0 36 0;
#X connect 38 0 2 0;
#X connect 38 0 36 0;
#X connect 40 0 41 0;
#X connect 41 0 27 0;
#X connect 42 0 47 0;
#X connect 43 0 20 0;
#X connect 44 0 21 0;
#X connect 45 0 20 0;
#X connect 46 0 21 0;
#X connect 47 0 16 0;
#X connect 47 1 74 0;
#X connect 47 2 48 0;
#X connect 49 0 50 0;
#X connect 50 0 15 0;
#X connect 51 0 52 0;
#X connect 51 0 38 1;
#X connect 52 1 51 1;
#X connect 53 0 52 0;
#X connect 54 0 72 0;
#X connect 55 0 38 1;
#X connect 55 1 54 0;
#X connect 55 2 53 1;
#X connect 56 0 51 0;
#X connect 57 0 65 0;
#X connect 58 0 57 0;
#X connect 58 1 56 1;
#X connect 59 0 61 0;
#X connect 60 0 61 1;
#X connect 61 0 62 0;
#X connect 62 0 75 0;
#X connect 63 0 55 0;
#X connect 63 1 58 0;
#X connect 64 0 63 1;
#X connect 65 0 73 0;
#X connect 66 0 67 0;
#X connect 67 0 52 1;
#X connect 67 0 76 0;
#X connect 68 0 70 0;
#X connect 69 0 64 0;
#X connect 70 0 64 0;
#X connect 71 0 74 0;
#X connect 71 1 69 0;
#X connect 71 2 53 0;
#X connect 72 0 71 0;
#X connect 73 0 74 0;
#X connect 73 1 56 0;
#X connect 74 0 7 0;
#X connect 74 1 7 1;
#X connect 75 0 72 1;
#X connect 76 0 65 1;
